<svg width="25" height="26" viewBox="0 0 25 26" fill="none" xmlns="http://www.w3.org/2000/svg">
<path opacity="0.4" d="M18.2812 21.6327H17.2656V21.3788C17.2656 20.2616 16.3516 19.3475 15.2344 19.3475H12.9492V17.0218C12.6953 17.0522 12.4414 17.0624 12.1875 17.0624C11.9336 17.0624 11.6797 17.0522 11.4258 17.0218V19.3475H9.14062C8.02344 19.3475 7.10937 20.2616 7.10937 21.3788V21.6327H6.09375C5.67734 21.6327 5.33203 21.978 5.33203 22.3944C5.33203 22.8108 5.67734 23.1561 6.09375 23.1561H18.2812C18.6977 23.1561 19.043 22.8108 19.043 22.3944C19.043 21.978 18.6977 21.6327 18.2812 21.6327Z" fill="#050A1D"/>
<path opacity="0.4" d="M5.60624 12.6344C4.93593 12.3805 4.34686 11.9641 3.87968 11.4969C2.93514 10.4508 2.31561 9.20158 2.31561 7.73908C2.31561 6.27658 3.46327 5.12892 4.92577 5.12892H5.49452C5.23046 5.6672 5.07811 6.26642 5.07811 6.90627V9.95314C5.07811 10.9078 5.26093 11.8117 5.60624 12.6344Z" fill="#050A1D"/>
<path opacity="0.4" d="M22.0594 7.73908C22.0594 9.20158 21.4399 10.4508 20.4953 11.4969C20.0281 11.9641 19.4391 12.3805 18.7688 12.6344C19.1141 11.8117 19.2969 10.9078 19.2969 9.95314V6.90627C19.2969 6.26642 19.1446 5.6672 18.8805 5.12892H19.4492C20.9117 5.12892 22.0594 6.27658 22.0594 7.73908Z" fill="#050A1D"/>
<path d="M15.2344 2.84387H9.14062C6.89609 2.84387 5.07812 4.66184 5.07812 6.90637V9.95325C5.07812 13.8837 8.25703 17.0626 12.1875 17.0626C16.118 17.0626 19.2969 13.8837 19.2969 9.95325V6.90637C19.2969 4.66184 17.4789 2.84387 15.2344 2.84387ZM15.0719 9.39465L14.4422 10.1665C14.3406 10.2782 14.2695 10.5017 14.2797 10.654L14.3406 11.6493C14.3812 12.2587 13.9445 12.5736 13.3758 12.3501L12.4516 11.9845C12.3094 11.9337 12.0656 11.9337 11.9234 11.9845L10.9992 12.3501C10.4305 12.5736 9.99375 12.2587 10.0344 11.6493L10.0953 10.654C10.1055 10.5017 10.0344 10.2782 9.93281 10.1665L9.30312 9.39465C8.90703 8.92746 9.07969 8.4095 9.66875 8.25715L10.6336 8.0134C10.7859 7.97278 10.9687 7.83059 11.05 7.69856L11.5883 6.86575C11.9234 6.34778 12.4516 6.34778 12.7867 6.86575L13.325 7.69856C13.4062 7.83059 13.5891 7.97278 13.7414 8.0134L14.7062 8.25715C15.2953 8.4095 15.468 8.92746 15.0719 9.39465Z" fill="#050A1D"/>
<path opacity="0.4" d="M15.0719 9.39417L14.4422 10.166C14.3406 10.2778 14.2695 10.5012 14.2797 10.6535L14.3406 11.6489C14.3813 12.2582 13.9445 12.5731 13.3758 12.3496L12.4516 11.984C12.3094 11.9332 12.0656 11.9332 11.9235 11.984L10.9992 12.3496C10.4305 12.5731 9.99377 12.2582 10.0344 11.6489L10.0953 10.6535C10.1055 10.5012 10.0344 10.2778 9.93283 10.166L9.30314 9.39417C8.90705 8.92699 9.07971 8.40902 9.66877 8.25667L10.6336 8.01292C10.786 7.9723 10.9688 7.83011 11.05 7.69808L11.5883 6.86527C11.9235 6.3473 12.4516 6.3473 12.7867 6.86527L13.325 7.69808C13.4063 7.83011 13.5891 7.9723 13.7414 8.01292L14.7063 8.25667C15.2953 8.40902 15.468 8.92699 15.0719 9.39417Z" fill="#050A1D"/>
</svg>
